<svg version="1.1" xmlns="http://www.w3.org/2000/svg" xmlns:xlink="http://www.w3.org/1999/xlink" style="" xml:space="preserve" width="480.0260009765625" height="480.0260009765625"><rect id="backgroundrect" width="100%" height="100%" x="0" y="0" fill="none" stroke="none"/>

















<g class="currentLayer" style=""><title>Layer 1</title><g id="svg_1" class="selected" fill="#ffffff" fill-opacity="1">
	<g id="svg_2" fill="#ffffff" fill-opacity="1">
		<path d="M475.922,229.325l-144-160c-3.072-3.392-7.36-5.312-11.904-5.312h-96c-6.304,0-12.032,3.712-14.624,9.472    c-2.56,5.792-1.504,12.544,2.72,17.216l134.368,149.312l-134.368,149.28c-4.224,4.704-5.312,11.456-2.72,17.216    c2.592,5.792,8.32,9.504,14.624,9.504h96c4.544,0,8.832-1.952,11.904-5.28l144-160    C481.394,244.653,481.394,235.373,475.922,229.325z" id="svg_3" fill="#ffffff" fill-opacity="1"/>
	</g>
</g><g id="svg_4" class="" fill="#ffffff" fill-opacity="1">
	<g id="svg_5" fill="#ffffff" fill-opacity="1">
		<path d="M267.922,229.325l-144-160c-3.072-3.392-7.36-5.312-11.904-5.312h-96c-6.304,0-12.032,3.712-14.624,9.472    c-2.56,5.792-1.504,12.544,2.72,17.216l134.368,149.312L4.114,389.293c-4.224,4.704-5.312,11.456-2.72,17.216    c2.592,5.792,8.32,9.504,14.624,9.504h96c4.544,0,8.832-1.952,11.904-5.28l144-160    C273.394,244.653,273.394,235.373,267.922,229.325z" id="svg_6" fill="#ffffff" fill-opacity="1"/>
	</g>
</g><g id="svg_7">
</g><g id="svg_8">
</g><g id="svg_9">
</g><g id="svg_10">
</g><g id="svg_11">
</g><g id="svg_12">
</g><g id="svg_13">
</g><g id="svg_14">
</g><g id="svg_15">
</g><g id="svg_16">
</g><g id="svg_17">
</g><g id="svg_18">
</g><g id="svg_19">
</g><g id="svg_20">
</g><g id="svg_21">
</g></g></svg>