<svg width="480" height="480" xmlns="http://www.w3.org/2000/svg">

 <g>
  <title>background</title>
  <rect fill="none" id="canvas_background" height="602" width="802" y="-1" x="-1"/>
 </g>
 <g>
  <title>Layer 1</title>
  <g fill="white" id="svg_1">
   <g id="svg_2">
    <path id="svg_3" d="m461.248,194.736l-128,-128c-24.928,-24.96 -65.568,-24.96 -90.496,0c-12.096,12.064 -18.752,28.16 -18.752,45.248s6.656,33.184 18.752,45.248l82.752,82.752l-82.752,82.752c-12.096,12.096 -18.752,28.16 -18.752,45.248s6.656,33.152 18.752,45.248c12.096,12.096 28.16,18.752 45.248,18.752s33.152,-6.656 45.248,-18.752l128,-128c12.096,-12.064 18.752,-28.16 18.752,-45.248s-6.656,-33.184 -18.752,-45.248zm-22.624,67.872l-128,128c-12.128,12.096 -33.12,12.096 -45.248,0c-12.48,-12.48 -12.48,-32.768 0,-45.248l105.376,-105.376l-105.376,-105.376c-6.048,-6.048 -9.376,-14.08 -9.376,-22.624s3.328,-16.576 9.376,-22.624c6.24,-6.24 14.432,-9.376 22.624,-9.376c8.192,0 16.384,3.136 22.624,9.344l128,128c6.048,6.08 9.376,14.112 9.376,22.656s-3.328,16.576 -9.376,22.624z"/>
   </g>
  </g>
  <g fill="white" id="svg_4">
   <g id="svg_5">
    <path id="svg_6" d="m237.248,194.736l-128,-128c-24.928,-24.96 -65.568,-24.96 -90.496,0c-12.096,12.064 -18.752,28.16 -18.752,45.248s6.656,33.184 18.752,45.248l82.752,82.752l-82.752,82.752c-12.096,12.096 -18.752,28.16 -18.752,45.248s6.656,33.152 18.752,45.248c12.096,12.096 28.16,18.752 45.248,18.752s33.152,-6.656 45.248,-18.752l128,-128c12.096,-12.064 18.752,-28.16 18.752,-45.248s-6.656,-33.184 -18.752,-45.248zm-22.624,67.872l-128,128c-12.128,12.096 -33.12,12.096 -45.248,0c-12.48,-12.48 -12.48,-32.768 0,-45.248l105.376,-105.376l-105.376,-105.376c-6.048,-6.048 -9.376,-14.08 -9.376,-22.624s3.328,-16.576 9.376,-22.624c6.24,-6.24 14.432,-9.376 22.624,-9.376s16.384,3.136 22.624,9.344l128,128c6.048,6.08 9.376,14.112 9.376,22.656s-3.328,16.576 -9.376,22.624z"/>
   </g>
  </g>
  <g id="svg_7"/>
  <g id="svg_8"/>
  <g id="svg_9"/>
  <g id="svg_10"/>
  <g id="svg_11"/>
  <g id="svg_12"/>
  <g id="svg_13"/>
  <g id="svg_14"/>
  <g id="svg_15"/>
  <g id="svg_16"/>
  <g id="svg_17"/>
  <g id="svg_18"/>
  <g id="svg_19"/>
  <g id="svg_20"/>
  <g id="svg_21"/>
 </g>
</svg>