<svg xmlns="http://www.w3.org/2000/svg" xmlns:xlink="http://www.w3.org/1999/xlink" xmlns:svgjs="http://svgjs.com/svgjs" version="1.1" width="490.8" height="490.8" style="" xml:space="preserve"><rect id="backgroundrect" width="100%" height="100%" x="0" y="0" fill="none" stroke="none"/><g class="currentLayer" style=""><title>Layer 1</title><g id="svg_1" class="selected" fill="#ef821c" fill-opacity="1">
<g xmlns="http://www.w3.org/2000/svg" id="svg_2" fill="#ef821c" fill-opacity="1">
	<path style="" d="M231.696,3.128c-4.237-4.093-10.99-3.975-15.083,0.262c-3.992,4.134-3.992,10.687,0,14.82   l227.115,227.136L216.592,472.461c-4.237,4.093-4.355,10.845-0.262,15.083c4.093,4.237,10.845,4.354,15.083,0.262   c0.089-0.086,0.176-0.173,0.262-0.262l234.667-234.667c4.164-4.165,4.164-10.917,0-15.083L231.696,3.128z" fill="#ef821c" data-original="#009688" class="" id="svg_3" fill-opacity="1"/>
	<path style="" d="M274.363,237.795L39.696,3.128c-4.237-4.093-10.99-3.975-15.083,0.262   c-3.992,4.134-3.992,10.687,0,14.821l227.115,227.136L24.592,472.461c-4.237,4.093-4.354,10.845-0.262,15.083   c4.093,4.237,10.845,4.354,15.083,0.262c0.089-0.086,0.176-0.173,0.262-0.262l234.667-234.667   C278.511,248.718,278.521,241.966,274.363,237.795z" fill="#ef821c" data-original="#009688" class="" id="svg_4" fill-opacity="1"/>
</g>
<path xmlns="http://www.w3.org/2000/svg" d="M224.144,490.68c-5.891,0.011-10.675-4.757-10.686-10.648c-0.005-2.84,1.123-5.565,3.134-7.571l227.136-227.115  L216.592,18.232c-4.093-4.237-3.975-10.99,0.262-15.083c4.134-3.992,10.687-3.992,14.82,0l234.667,234.667  c4.164,4.165,4.164,10.917,0,15.083L231.675,487.565C229.676,489.56,226.968,490.68,224.144,490.68z" fill="#ef821c" data-original="#000000" style="" class="" id="svg_5" fill-opacity="1"/>
<path xmlns="http://www.w3.org/2000/svg" d="M32.144,490.68c-5.891,0.011-10.675-4.757-10.686-10.648c-0.005-2.84,1.123-5.565,3.134-7.571l227.136-227.115  L24.592,18.232c-4.171-4.171-4.171-10.933,0-15.104s10.933-4.171,15.104,0l234.667,234.667c4.164,4.165,4.164,10.917,0,15.083  L39.696,487.544C37.695,489.551,34.978,490.68,32.144,490.68z" fill="#ef821c" data-original="#000000" style="" class="" id="svg_6" fill-opacity="1"/>
<g xmlns="http://www.w3.org/2000/svg" id="svg_7" fill="#ef821c" fill-opacity="1">
</g>
<g xmlns="http://www.w3.org/2000/svg" id="svg_8" fill="#ef821c" fill-opacity="1">
</g>
<g xmlns="http://www.w3.org/2000/svg" id="svg_9" fill="#ef821c" fill-opacity="1">
</g>
<g xmlns="http://www.w3.org/2000/svg" id="svg_10" fill="#ef821c" fill-opacity="1">
</g>
<g xmlns="http://www.w3.org/2000/svg" id="svg_11" fill="#ef821c" fill-opacity="1">
</g>
<g xmlns="http://www.w3.org/2000/svg" id="svg_12" fill="#ef821c" fill-opacity="1">
</g>
<g xmlns="http://www.w3.org/2000/svg" id="svg_13" fill="#ef821c" fill-opacity="1">
</g>
<g xmlns="http://www.w3.org/2000/svg" id="svg_14" fill="#ef821c" fill-opacity="1">
</g>
<g xmlns="http://www.w3.org/2000/svg" id="svg_15" fill="#ef821c" fill-opacity="1">
</g>
<g xmlns="http://www.w3.org/2000/svg" id="svg_16" fill="#ef821c" fill-opacity="1">
</g>
<g xmlns="http://www.w3.org/2000/svg" id="svg_17" fill="#ef821c" fill-opacity="1">
</g>
<g xmlns="http://www.w3.org/2000/svg" id="svg_18" fill="#ef821c" fill-opacity="1">
</g>
<g xmlns="http://www.w3.org/2000/svg" id="svg_19" fill="#ef821c" fill-opacity="1">
</g>
<g xmlns="http://www.w3.org/2000/svg" id="svg_20" fill="#ef821c" fill-opacity="1">
</g>
<g xmlns="http://www.w3.org/2000/svg" id="svg_21" fill="#ef821c" fill-opacity="1">
</g>
</g></g></svg>