<svg id="Layer_1" enable-background="new 0 0 512.001 512.001" height="512" viewBox="0 0 512.001 512.001" width="512" xmlns="http://www.w3.org/2000/svg" xmlns:xlink="http://www.w3.org/1999/xlink"><linearGradient id="SVGID_1_" gradientUnits="userSpaceOnUse" x1="20.501" x2="491.501" y1="256.001" y2="256.001"><stop offset="0" stop-color="#9dd6fc"/><stop offset="1" stop-color="#d17ff7"/></linearGradient><path d="m146.5 156c0-25.405 13.431-46 30-46 39.748 2.216 39.728 89.799 0 92-16.568 0-30-20.595-30-46zm189 47c16.569 0 30-20.595 30-46-1.61-61.03-58.393-61.021-60 0 0 25.405 13.432 46 30 46zm-193.438 69.746c46.742 101.165 176.449 103.828 226.855 2.247 7.58-12.96-2.297-30.056-17.416-29.839-8.15 0-15.162 4.875-18.277 11.869l-.054-.023c-41.957 80.446-127.407 60.13-154.017.729-2.948-7.369-10.154-12.575-18.576-12.575-13.95-.307-24.01 14.874-18.51 27.59zm349.438-252.746v472c0 8.089-4.873 15.382-12.346 18.478-2.474 1.024-5.073 1.522-7.649 1.523-5.205 0-10.32-2.032-14.146-5.858l-56.143-56.143-360.716-.011c-11.045 0-20-8.954-20-20v-409.989c0-11.046 8.954-20 20-20h431c11.046 0 20 8.954 20 20zm-40 20h-391v369.99l300.714.009-17.856-17.856c-7.811-7.811-7.811-20.475 0-28.285 7.81-7.81 20.474-7.81 28.284 0l79.858 79.858z" fill="url(#SVGID_1_)"/></svg>